<svg width="94" height="20" viewBox="0 0 94 20" fill="none" xmlns="http://www.w3.org/2000/svg">
<path d="M19.3316 12.4191C18.0209 17.7762 12.696 21.0365 7.438 19.7006C2.18216 18.3649 -1.01742 12.9387 0.293938 7.58192C1.60407 2.22416 6.92892 -1.03643 12.1854 0.299185C17.4431 1.6348 20.6423 7.06162 19.3316 12.4191Z" fill="#FCA014"/>
<path d="M14.1395 8.57466C14.3348 7.24404 13.3406 6.52874 11.9811 6.05155L12.4221 4.24907L11.3454 3.97564L10.916 5.73062C10.6329 5.65874 10.3422 5.59094 10.0533 5.52375L10.4857 3.7572L9.4096 3.48376L8.96829 5.28562C8.73399 5.23124 8.50398 5.1775 8.28072 5.12094L8.28194 5.11531L6.79702 4.7375L6.51058 5.90936C6.51058 5.90936 7.30947 6.09592 7.29261 6.10749C7.7287 6.21842 7.80751 6.51248 7.79433 6.7456L7.29199 8.79902C7.32204 8.80684 7.361 8.81809 7.40393 8.83559C7.36805 8.82653 7.32972 8.81652 7.29015 8.80684L6.58601 11.6834C6.53265 11.8184 6.39741 12.0209 6.09258 11.944C6.10331 11.9599 5.30993 11.7449 5.30993 11.7449L4.77539 13.0009L6.1766 13.3568C6.43728 13.4234 6.69274 13.493 6.94421 13.5587L6.49862 15.3818L7.57414 15.6552L8.01544 13.8515C8.30924 13.9327 8.59445 14.0077 8.87353 14.0784L8.43376 15.8736L9.5105 16.1471L9.9561 14.3274C11.7922 14.6815 13.1728 14.5387 13.754 12.8465C14.2223 11.484 13.7307 10.6981 12.7647 10.1856C13.4682 10.0203 13.9981 9.54871 14.1395 8.57466ZM11.6793 12.0899C11.3466 13.4524 9.09525 12.7159 8.36536 12.5312L8.95664 10.1159C9.68653 10.3015 12.0271 10.669 11.6793 12.0899ZM12.0124 8.55496C11.7088 9.79433 9.83496 9.16464 9.22713 9.01027L9.7632 6.81967C10.371 6.97405 12.3286 7.26216 12.0124 8.55496Z" fill="white"/>
<g opacity="0.5">
<path d="M28.7591 6.04945C29.5549 6.04945 30.2425 6.19476 30.8203 6.48007C31.4008 6.76819 31.8798 7.15632 32.2641 7.64444C32.6431 8.13506 32.9253 8.70849 33.1074 9.36567C33.2884 10.0247 33.3792 10.7332 33.3792 11.4916C33.3792 12.6566 33.1697 13.7572 32.7468 14.7947C32.3239 15.8337 31.7501 16.735 31.0202 17.5037C30.2909 18.2715 29.4298 18.8768 28.4367 19.324C27.4453 19.7715 26.3673 19.9953 25.2099 19.9953C25.0602 19.9953 24.7971 19.9909 24.4254 19.9831C24.0537 19.9753 23.6265 19.9362 23.1481 19.8702C22.6666 19.8018 22.1575 19.7006 21.6199 19.5649C21.0826 19.4318 20.5723 19.2453 20.0917 19.0084L24.3889 0.609823L28.2377 0.00201416L26.6991 6.53101C27.0285 6.37977 27.3603 6.26257 27.6915 6.17726C28.023 6.0932 28.3788 6.04945 28.7591 6.04945ZM25.5307 16.884C26.1103 16.884 26.6565 16.7387 27.1696 16.4534C27.6842 16.1678 28.1282 15.7822 28.5002 15.3019C28.8722 14.8194 29.1666 14.2759 29.3813 13.6688C29.596 13.0616 29.7046 12.4281 29.7046 11.7691C29.7046 10.9594 29.5718 10.3278 29.3071 9.87129C29.0424 9.41661 28.5527 9.18786 27.8415 9.18786C27.6084 9.18786 27.3082 9.23317 26.9359 9.3141C26.5623 9.40004 26.228 9.57848 25.9284 9.84692L24.2902 16.7806C24.3889 16.7984 24.4763 16.8153 24.5508 16.8312C24.6238 16.8484 24.7045 16.8606 24.7848 16.869C24.8698 16.8787 24.967 16.8837 25.0845 16.8837C25.2019 16.8837 25.3488 16.884 25.5307 16.884Z" fill="#1A202C"/>
<path d="M37.3704 19.6433H33.6943L36.7988 6.33184H40.5001L37.3704 19.6433ZM39.1593 4.70998C38.6462 4.70998 38.181 4.55435 37.7682 4.24248C37.352 3.93248 37.1459 3.4553 37.1459 2.81218C37.1459 2.45844 37.2165 2.12656 37.3563 1.81344C37.4983 1.50094 37.6838 1.23189 37.9163 1.00314C38.1485 0.776267 38.4174 0.595015 38.7229 0.458454C39.0302 0.32408 39.3571 0.256897 39.7055 0.256897C40.2182 0.256897 40.681 0.412521 41.0953 0.724393C41.5081 1.03783 41.7157 1.51501 41.7157 2.15469C41.7157 2.50969 41.6455 2.84281 41.5044 3.1553C41.3643 3.4678 41.1788 3.73686 40.9463 3.9656C40.716 4.19279 40.4446 4.37341 40.1397 4.50873C39.8321 4.64529 39.5064 4.70998 39.1593 4.70998Z" fill="#1A202C"/>
<path d="M43.7212 3.01516L47.5716 2.40735L46.6261 6.33106H50.7497L50.0051 9.4179H45.9063L44.8145 14.0741C44.7139 14.4622 44.6569 14.8247 44.641 15.1616C44.6229 15.5 44.6649 15.7907 44.7642 16.0353C44.863 16.2807 45.0406 16.4697 45.2982 16.6035C45.5545 16.7394 45.9216 16.8078 46.4031 16.8078C46.7997 16.8078 47.1861 16.7694 47.5596 16.6931C47.931 16.6181 48.3073 16.5138 48.6882 16.3772L48.9624 19.2634C48.4655 19.4491 47.9276 19.6087 47.348 19.7431C46.7675 19.8794 46.0802 19.945 45.2859 19.945C44.1438 19.945 43.2584 19.7722 42.6276 19.4281C41.9977 19.0816 41.5524 18.6081 41.2859 18.0088C41.0231 17.4116 40.9056 16.7231 40.9384 15.9475C40.9725 15.17 41.0875 14.3529 41.2859 13.4922L43.7212 3.01516Z" fill="#1A202C"/>
</g>
<path d="M50.5889 14.3277C50.5889 13.1811 50.771 12.0999 51.1351 11.0877C51.4985 10.0746 52.022 9.18865 52.7013 8.42834C53.3781 7.67179 54.2028 7.07241 55.1734 6.63242C56.1394 6.19492 57.2211 5.9743 58.4131 5.9743C59.1593 5.9743 59.8257 6.04618 60.4121 6.19024C61.0009 6.33555 61.5336 6.52337 62.0154 6.75899L60.7476 9.69646C60.4164 9.55958 60.0726 9.43896 59.7171 9.32958C59.3614 9.21802 58.9271 9.16427 58.4134 9.16427C57.1864 9.16427 56.2164 9.59521 55.4945 10.4543C54.7753 11.3139 54.4131 12.4711 54.4131 13.9227C54.4131 14.783 54.5953 15.4786 54.9609 16.0108C55.3246 16.5429 55.9965 16.8076 56.9721 16.8076C57.4535 16.8076 57.9182 16.7564 58.3631 16.6564C58.8115 16.5551 59.2074 16.4276 59.5561 16.277L59.8306 19.2882C59.3657 19.472 58.8529 19.6379 58.2905 19.7832C57.7268 19.9235 57.0558 19.9964 56.2777 19.9964C55.2507 19.9964 54.3812 19.8432 53.6701 19.5417C52.9586 19.2354 52.3707 18.8289 51.9076 18.3139C51.442 17.7976 51.1078 17.1948 50.9011 16.503C50.6944 15.8117 50.5889 15.0855 50.5889 14.3277Z" fill="#1A202C"/>
<path d="M66.9185 19.9964C66.0411 19.9964 65.279 19.8601 64.6326 19.5904C63.9879 19.3207 63.454 18.9423 63.0317 18.4517C62.6088 17.9636 62.2923 17.3851 62.0755 16.7186C61.8587 16.0523 61.7544 15.3145 61.7544 14.5061C61.7544 13.492 61.9142 12.4783 62.2371 11.4674C62.5585 10.4543 63.0354 9.54396 63.6665 8.73491C64.2928 7.9246 65.0653 7.2621 65.9749 6.74554C66.8836 6.23242 67.9287 5.9743 69.1027 5.9743C69.9642 5.9743 70.7223 6.11086 71.3776 6.38055C72.0299 6.64961 72.5672 7.03117 72.992 7.51929C73.4121 8.00991 73.7314 8.58584 73.9461 9.25334C74.1623 9.91833 74.269 10.658 74.269 11.4671C74.269 12.478 74.1114 13.4917 73.7986 14.5058C73.4854 15.5148 73.0208 16.4273 72.4075 17.2383C71.7953 18.0473 71.0299 18.7095 70.1104 19.2239C69.1923 19.7382 68.1275 19.9964 66.9185 19.9964ZM68.7559 9.16459C68.2109 9.16459 67.7291 9.32583 67.3166 9.64426C66.9026 9.96645 66.5548 10.3714 66.2745 10.8599C65.9911 11.3505 65.7811 11.8855 65.6391 12.4671C65.4983 13.0499 65.4293 13.6008 65.4293 14.1242C65.4293 14.9689 65.563 15.6267 65.8259 16.1001C66.0924 16.5711 66.5711 16.8079 67.2669 16.8079C67.8137 16.8079 68.2931 16.6479 68.708 16.3261C69.1196 16.0064 69.4677 15.6011 69.7501 15.1117C70.0316 14.6236 70.2435 14.087 70.3855 13.5045C70.5245 12.9236 70.5953 12.3696 70.5953 11.8471C70.5953 11.0046 70.4622 10.3452 70.1969 9.87239C69.932 9.40146 69.4511 9.16459 68.7559 9.16459Z" fill="#1A202C"/>
<path d="M78.2759 19.6433H74.5967L77.7012 6.33184H81.4043L78.2759 19.6433ZM80.062 4.70998C79.5492 4.70998 79.0843 4.55435 78.6721 4.24248C78.2581 3.93248 78.0502 3.4553 78.0502 2.81218C78.0502 2.45844 78.1216 2.12656 78.2618 1.81344C78.4019 1.50094 78.5887 1.23189 78.8212 1.00314C79.0521 0.776267 79.3235 0.595015 79.6283 0.458454C79.9338 0.32408 80.2607 0.256897 80.6079 0.256897C81.1219 0.256897 81.5862 0.412521 81.9996 0.724393C82.4133 1.03783 82.6221 1.51501 82.6221 2.15469C82.6221 2.50969 82.5479 2.84281 82.409 3.1553C82.2701 3.4678 82.0833 3.73686 81.8518 3.9656C81.6187 4.19279 81.3506 4.37341 81.0452 4.50873C80.7373 4.64529 80.411 4.70998 80.062 4.70998Z" fill="#1A202C"/>
<path d="M84.0543 6.93714C84.3334 6.85402 84.645 6.75402 84.9839 6.64527C85.324 6.53653 85.704 6.43528 86.1284 6.34403C86.5482 6.24997 87.0221 6.17372 87.5431 6.11466C88.0642 6.05434 88.6579 6.02496 89.3175 6.02496C91.2564 6.02496 92.5929 6.60028 93.3307 7.74745C94.068 8.89463 94.1956 10.4646 93.7171 12.4546L92.0261 19.642H88.3257L89.9646 12.6058C90.0646 12.1665 90.1431 11.7418 90.2011 11.3268C90.2597 10.9155 90.2563 10.553 90.1879 10.2393C90.1226 9.92931 89.9686 9.67555 89.7297 9.47899C89.4871 9.28556 89.1207 9.18837 88.6235 9.18837C88.1442 9.18837 87.6566 9.24087 87.1588 9.34212L84.7493 19.6417H81.0474L84.0543 6.93714Z" fill="#1A202C"/>
</svg>
