<svg width="100" height="24" viewBox="0 0 100 24" fill="none" xmlns="http://www.w3.org/2000/svg">
<path d="M37.394 5.36713H31.86C31.6768 5.36701 31.4996 5.43121 31.3603 5.54815C31.2209 5.66509 31.1287 5.82708 31.1002 6.00494L28.862 19.9518C28.8517 20.0166 28.8558 20.0827 28.874 20.1457C28.8922 20.2087 28.9241 20.2671 28.9675 20.3168C29.0109 20.3666 29.0647 20.4065 29.1253 20.4338C29.1858 20.4611 29.2517 20.4752 29.3184 20.4751H31.9603C32.1436 20.4752 32.321 20.4109 32.4603 20.2938C32.5996 20.1767 32.6918 20.0145 32.7201 19.8365L33.3238 16.0748C33.3521 15.897 33.4442 15.7349 33.5833 15.6178C33.7225 15.5007 33.8996 15.4363 34.0828 15.4362H35.8347C39.48 15.4362 41.5839 13.7025 42.1333 10.2669C42.3809 8.76378 42.1439 7.58279 41.4277 6.75569C40.6412 5.84748 39.2462 5.36713 37.394 5.36713ZM38.0324 10.4609C37.7298 12.4125 36.2126 12.4125 34.7455 12.4125H33.9104L34.4963 8.76776C34.5134 8.66113 34.5688 8.56401 34.6523 8.49389C34.7358 8.42376 34.842 8.38523 34.9519 8.38523H35.3346C36.3339 8.38523 37.2766 8.38523 37.7638 8.94511C38.0543 9.27913 38.1433 9.77539 38.0324 10.4609ZM53.936 10.3981H51.286C51.1761 10.3981 51.0699 10.4366 50.9864 10.5068C50.9029 10.5769 50.8476 10.674 50.8304 10.7806L50.7131 11.5091L50.5278 11.2451C49.9541 10.4267 48.6747 10.1531 47.3979 10.1531C44.4694 10.1531 41.9683 12.333 41.4811 15.3909C41.2279 16.9162 41.5879 18.3748 42.4683 19.392C43.2759 20.3272 44.4314 20.7169 45.8062 20.7169C48.1658 20.7169 49.4742 19.2257 49.4742 19.2257L49.3561 19.9495C49.3456 20.0142 49.3494 20.0803 49.3674 20.1434C49.3854 20.2065 49.4171 20.265 49.4604 20.3149C49.5036 20.3648 49.5573 20.4049 49.6178 20.4324C49.6783 20.4599 49.7442 20.4742 49.8108 20.4743H52.1979C52.3812 20.4744 52.5586 20.4101 52.6979 20.293C52.8372 20.1759 52.9294 20.0137 52.9577 19.8357L54.39 10.9214C54.4005 10.8568 54.3967 10.7908 54.3787 10.7278C54.3608 10.6649 54.3291 10.6065 54.2859 10.5567C54.2428 10.507 54.1891 10.467 54.1287 10.4396C54.0683 10.4122 54.0026 10.3981 53.936 10.3981ZM50.2421 15.4672C49.9864 16.9552 48.7848 17.9541 47.2522 17.9541C46.4827 17.9541 45.8677 17.7115 45.4728 17.2519C45.0812 16.7954 44.9323 16.1456 45.0569 15.4219C45.2956 13.9467 46.5175 12.9152 48.0266 12.9152C48.7791 12.9152 49.3909 13.1609 49.7938 13.6246C50.1976 14.093 50.3578 14.7467 50.2421 15.4672ZM68.0498 10.3981H65.3867C65.2612 10.3983 65.1375 10.4286 65.0265 10.4864C64.9156 10.5442 64.8206 10.6277 64.7499 10.7297L61.077 16.047L59.5202 10.9373C59.4724 10.7815 59.3748 10.6449 59.2419 10.5478C59.109 10.4506 58.9478 10.3982 58.7822 10.3981H56.1653C56.0919 10.3979 56.0194 10.415 55.954 10.4478C55.8886 10.4807 55.8322 10.5285 55.7894 10.5871C55.7465 10.6458 55.7186 10.7137 55.7078 10.7851C55.6971 10.8565 55.7038 10.9294 55.7276 10.9977L58.6608 19.458L55.9032 23.2841C55.8541 23.3519 55.8251 23.4317 55.8191 23.5147C55.8132 23.5977 55.8306 23.6807 55.8695 23.7546C55.9083 23.8285 55.9671 23.8905 56.0394 23.9338C56.1117 23.977 56.1948 23.9999 56.2794 23.9998H58.9392C59.0634 24 59.1858 23.9706 59.2958 23.9141C59.4059 23.8575 59.5004 23.7756 59.5712 23.6754L68.4285 11.1099C68.4765 11.0419 68.5046 10.9623 68.5099 10.8797C68.5151 10.7971 68.4973 10.7147 68.4583 10.6414C68.4193 10.568 68.3605 10.5066 68.2885 10.4637C68.2165 10.4208 68.1339 10.3981 68.0498 10.3981Z" fill="#022273"/>
<path d="M76.8624 5.36792H71.3276C71.1445 5.368 70.9675 5.43228 70.8283 5.5492C70.6892 5.66613 70.5971 5.82801 70.5686 6.00574L68.3304 19.9526C68.32 20.0172 68.3239 20.0833 68.342 20.1463C68.3601 20.2092 68.3918 20.2676 68.435 20.3173C68.4783 20.367 68.5319 20.407 68.5924 20.4344C68.6528 20.4618 68.7186 20.4759 68.7851 20.4759H71.6254C71.7535 20.4757 71.8774 20.4306 71.9747 20.3487C72.072 20.2668 72.1363 20.1534 72.1562 20.029L72.7914 16.0756C72.8197 15.8978 72.9118 15.7357 73.0509 15.6186C73.1901 15.5015 73.3672 15.4371 73.5504 15.437H75.3015C78.9476 15.437 81.0507 13.7033 81.6009 10.2677C81.8493 8.76458 81.6106 7.58358 80.8945 6.75649C80.1088 5.84827 78.7146 5.36792 76.8624 5.36792ZM77.5008 10.4617C77.199 12.4133 75.6818 12.4133 74.2139 12.4133H73.3797L73.9663 8.76856C73.9831 8.66192 74.0382 8.56472 74.1216 8.49456C74.2051 8.42439 74.3113 8.38589 74.4211 8.38602H74.8038C75.8023 8.38602 76.7458 8.38602 77.233 8.9459C77.5235 9.27992 77.6117 9.77618 77.5008 10.4617ZM93.4036 10.3989H90.7552C90.6453 10.3986 90.539 10.437 90.4556 10.5072C90.3721 10.5774 90.3171 10.6747 90.3004 10.7814L90.1831 11.5099L89.997 11.2459C89.4233 10.4275 88.1448 10.1539 86.8679 10.1539C83.9395 10.1539 81.4391 12.3338 80.952 15.3917C80.6995 16.917 81.058 18.3756 81.9384 19.3928C82.7475 20.328 83.9014 20.7177 85.2762 20.7177C87.6358 20.7177 88.9442 19.2265 88.9442 19.2265L88.8261 19.9502C88.8155 20.0151 88.8195 20.0814 88.8375 20.1446C88.8556 20.2078 88.8875 20.2664 88.9309 20.3163C88.9743 20.3662 89.0282 20.4063 89.0889 20.4337C89.1496 20.4611 89.2157 20.4753 89.2825 20.4751H91.6687C91.8519 20.475 92.0291 20.4106 92.1682 20.2936C92.3074 20.1765 92.3994 20.0144 92.4278 19.8365L93.8608 10.9222C93.871 10.8574 93.8668 10.7913 93.8484 10.7283C93.8301 10.6652 93.7981 10.6069 93.7547 10.5572C93.7113 10.5074 93.6574 10.4676 93.5968 10.4402C93.5362 10.4129 93.4703 10.3988 93.4036 10.3989ZM89.7097 15.468C89.4556 16.956 88.2524 17.9549 86.7198 17.9549C85.9519 17.9549 85.3353 17.7123 84.9404 17.2526C84.5488 16.7962 84.4015 16.1464 84.5245 15.4227C84.7648 13.9474 85.9851 12.916 87.4942 12.916C88.2467 12.916 88.8585 13.1617 89.2614 13.6254C89.6668 14.0938 89.8271 14.7475 89.7097 15.468ZM96.5279 5.75045L94.2565 19.9526C94.2461 20.0172 94.2501 20.0833 94.2681 20.1463C94.2862 20.2092 94.3179 20.2676 94.3612 20.3173C94.4044 20.367 94.4581 20.407 94.5185 20.4344C94.5789 20.4618 94.6447 20.4759 94.7113 20.4759H96.9948C97.3743 20.4759 97.6963 20.2055 97.7546 19.8373L99.9944 5.89122C100.005 5.82657 100.001 5.76048 99.9828 5.69749C99.9647 5.63449 99.933 5.57609 99.8898 5.52629C99.8466 5.47649 99.7929 5.43648 99.7325 5.409C99.672 5.38153 99.6062 5.36724 99.5396 5.36713H96.9826C96.8729 5.36751 96.7668 5.40629 96.6835 5.47653C96.6001 5.54677 96.545 5.64388 96.5279 5.75045Z" fill="#167FC4"/>
<path d="M5.87887 23.1858L6.30207 20.5439L5.35938 20.5224H0.85791L3.9862 1.02759C3.99551 0.968027 4.0263 0.913734 4.07293 0.874611C4.11957 0.835487 4.17897 0.814139 4.24028 0.814457H11.8304C14.3502 0.814457 16.0891 1.3298 16.997 2.34697C17.4226 2.82414 17.6937 3.32278 17.8248 3.87153C17.9624 4.44731 17.9648 5.13523 17.8305 5.97426L17.8207 6.0355V6.57311L18.2464 6.8101C18.5713 6.9719 18.8634 7.19076 19.1082 7.45587C19.4723 7.86385 19.7078 8.38238 19.8073 8.99713C19.9101 9.62938 19.8761 10.3817 19.7078 11.2335C19.5136 12.2133 19.1996 13.0666 18.7756 13.7649C18.4015 14.3904 17.8985 14.9322 17.2988 15.3554C16.7356 15.7483 16.0664 16.0465 15.3099 16.2374C14.5767 16.4251 13.7409 16.5197 12.8241 16.5197H12.2334C11.811 16.5197 11.4007 16.6692 11.0787 16.9373C10.7571 17.2081 10.5437 17.5824 10.4766 17.9934L10.4321 18.2312L9.68445 22.8876L9.65046 23.0586C9.64156 23.1126 9.62618 23.1397 9.60353 23.158C9.58158 23.1756 9.5542 23.1854 9.52585 23.1858H5.87887Z" fill="#022273"/>
<path d="M18.6488 6.09821C18.6262 6.24056 18.6003 6.3861 18.5712 6.53561C17.5702 11.5865 14.1457 13.3313 9.77213 13.3313H7.54527C7.0104 13.3313 6.55969 13.713 6.47634 14.2316L5.33621 21.3382L5.01334 23.3527C5.00048 23.4326 5.00539 23.5143 5.02774 23.5921C5.05008 23.67 5.08933 23.7422 5.14278 23.8037C5.19623 23.8652 5.2626 23.9146 5.33734 23.9485C5.41209 23.9824 5.49341 24 5.57572 24H9.52533C9.99304 24 10.3903 23.666 10.464 23.2127L10.5028 23.0155L11.2465 18.3774L11.2942 18.1229C11.367 17.668 11.7651 17.334 12.2328 17.334H12.8235C16.6502 17.334 19.6457 15.807 20.5213 11.3884C20.887 9.54258 20.6977 8.00132 19.7299 6.91735C19.4232 6.58203 19.0568 6.30445 18.6488 6.09821Z" fill="#167FC4"/>
<path d="M17.6005 5.68689C17.2809 5.59602 16.9558 5.5251 16.6271 5.47454C15.9776 5.37644 15.3211 5.32937 14.664 5.33378H8.71491C8.4885 5.33361 8.26951 5.41305 8.0975 5.55774C7.9255 5.70243 7.81184 5.90283 7.77707 6.1227L6.51151 14.0008L6.4751 14.2306C6.51452 13.9798 6.64398 13.7512 6.84004 13.5861C7.0361 13.4209 7.28582 13.3302 7.54402 13.3304H9.77089C14.1445 13.3304 17.569 11.5847 18.5699 6.53466C18.5998 6.38514 18.6249 6.23961 18.6476 6.09725C18.3835 5.96112 18.1082 5.847 17.8247 5.75608C17.7503 5.73184 17.6756 5.70877 17.6005 5.68689Z" fill="#022273"/>
<path d="M7.77938 6.12289C7.81386 5.90295 7.92746 5.70246 8.09955 5.55785C8.27164 5.41323 8.4908 5.33407 8.71722 5.33477H14.6663C15.3711 5.33477 16.029 5.3801 16.6294 5.47553C17.0357 5.53829 17.4364 5.63215 17.8278 5.75627C18.1231 5.8525 18.3974 5.96622 18.6507 6.09744C18.9485 4.23091 18.6483 2.96005 17.6214 1.80927C16.4894 0.542384 14.4462 0 11.8318 0H4.24165C3.70759 0 3.25202 0.381736 3.16948 0.901057L0.00801874 20.5963C-0.00670684 20.6877 -0.00110426 20.7812 0.0244411 20.8703C0.0499864 20.9594 0.0948683 21.042 0.155999 21.1125C0.21713 21.1829 0.29306 21.2395 0.378565 21.2783C0.464069 21.3172 0.55712 21.3373 0.651317 21.3375H5.33728L6.51382 14.001L7.77938 6.12289Z" fill="#022273"/>
</svg>
